{"scene":0,"asset":{"generator":"ImageToStl.com","version":"2.0"},"scenes":[{"name":"Scene","nodes":[0]}],"nodes":[{"name":"Node0","children":[1]},{"name":"Node1","mesh":0}],"materials":[{"name":"Claimed","pbrMetallicRoughness":{"baseColorFactor":[0.522773,0.522773,0.522773,1.0],"metallicFactor":0.589963,"roughnessFactor":0.8901961},"doubleSided":true}],"images":[],"textures":[],"samplers":[{"magFilter":9729,"minFilter":9987}],"meshes":[{"name":"Mesh0","primitives":[{"indices":2,"material":0,"attributes":{"POSITION":0,"TEXCOORD_0":1}}]}],"accessors":[{"bufferView":0,"componentType":5126,"count":4,"type":"VEC3","min":[-1.250006,0.0,-1.249999],"max":[1.250004,0.0,1.250006]},{"bufferView":1,"componentType":5126,"count":4,"type":"VEC2"},{"bufferView":2,"componentType":5123,"count":18,"type":"SCALAR"}],"bufferViews":[{"target":34962,"buffer":0,"byteLength":48,"byteOffset":0},{"target":34962,"buffer":0,"byteLength":32,"byteOffset":48},{"target":34963,"buffer":0,"byteLength":36,"byteOffset":80}],"buffers":[{"byteLength":116,"uri":"data:application/octet-stream;base64,"}]}