{
  "accessors": [
    {
      "bufferView": 2,
      "componentType": 5126,
      "count": 352,
      "max": [
        1.0,
        10.890031814575195,
        4.847023010253906
      ],
      "min": [
        -1.0,
        -1.0,
        -1.0
      ],
      "type": "VEC3"
    },
    {
      "bufferView": 2,
      "byteOffset": 4224,
      "componentType": 5126,
      "count": 352,
      "max": [
        1.0,
        1.0,
        1.0
      ],
      "min": [
        -1.0,
        -0.9997514486312866,
        -0.4648343026638031
      ],
      "type": "VEC3"
    },
    {
      "bufferView": 1,
      "componentType": 5126,
      "count": 352,
      "max": [
        0.9972748756408691,
        0.9874675273895264
      ],
      "min": [
        0.00028694674256257713,
        0.00028693675994873047
      ],
      "type": "VEC2"
    },
    {
      "bufferView": 0,
      "componentType": 5125,
      "count": 660,
      "type": "SCALAR"
    },
    {
      "bufferView": 2,
      "byteOffset": 8448,
      "componentType": 5126,
      "count": 288,
      "max": [
        0.06871234625577927,
        1.0,
        1.9999998807907104
      ],
      "min": [
        -3.003000020980835,
        -1.0,
        -5.960464477539063e-08
      ],
      "type": "VEC3"
    },
    {
      "bufferView": 2,
      "byteOffset": 11904,
      "componentType": 5126,
      "count": 288,
      "max": [
        0.9991652965545654,
        1.0,
        1.0
      ],
      "min": [
        0.0,
        -1.0,
        -0.0873454362154007
      ],
      "type": "VEC3"
    },
    {
      "bufferView": 1,
      "byteOffset": 2816,
      "componentType": 5126,
      "count": 288,
      "max": [
        0.9912152290344238,
        0.989997148513794
      ],
      "min": [
        0.008922964334487915,
        0.005007714498788118
      ],
      "type": "VEC2"
    },
    {
      "bufferView": 0,
      "byteOffset": 2640,
      "componentType": 5125,
      "count": 1005,
      "type": "SCALAR"
    },
    {
      "bufferView": 2,
      "byteOffset": 15360,
      "componentType": 5126,
      "count": 352,
      "max": [
        1.0,
        10.890031814575195,
        4.847023010253906
      ],
      "min": [
        -1.0,
        -1.0,
        -1.0
      ],
      "type": "VEC3"
    },
    {
      "bufferView": 2,
      "byteOffset": 19584,
      "componentType": 5126,
      "count": 352,
      "max": [
        1.0,
        1.0,
        1.0
      ],
      "min": [
        -1.0,
        -0.9997514486312866,
        -0.4648343026638031
      ],
      "type": "VEC3"
    },
    {
      "bufferView": 1,
      "byteOffset": 5120,
      "componentType": 5126,
      "count": 352,
      "max": [
        0.9972748756408691,
        0.9874675273895264
      ],
      "min": [
        0.00028694674256257713,
        0.00028693675994873047
      ],
      "type": "VEC2"
    },
    {
      "bufferView": 0,
      "byteOffset": 6660,
      "componentType": 5125,
      "count": 660,
      "type": "SCALAR"
    },
    {
      "bufferView": 2,
      "byteOffset": 23808,
      "componentType": 5126,
      "count": 288,
      "max": [
        0.06871234625577927,
        1.0,
        1.9999998807907104
      ],
      "min": [
        -3.003000020980835,
        -1.0,
        -5.960464477539063e-08
      ],
      "type": "VEC3"
    },
    {
      "bufferView": 2,
      "byteOffset": 27264,
      "componentType": 5126,
      "count": 288,
      "max": [
        0.9991652965545654,
        1.0,
        1.0
      ],
      "min": [
        0.0,
        -1.0,
        -0.0873454362154007
      ],
      "type": "VEC3"
    },
    {
      "bufferView": 1,
      "byteOffset": 7936,
      "componentType": 5126,
      "count": 288,
      "max": [
        0.9912152290344238,
        0.989997148513794
      ],
      "min": [
        0.008922964334487915,
        0.005007714498788118
      ],
      "type": "VEC2"
    },
    {
      "bufferView": 0,
      "byteOffset": 9300,
      "componentType": 5125,
      "count": 1005,
      "type": "SCALAR"
    },
    {
      "bufferView": 2,
      "byteOffset": 30720,
      "componentType": 5126,
      "count": 288,
      "max": [
        0.06871234625577927,
        1.0,
        1.9999998807907104
      ],
      "min": [
        -3.003000020980835,
        -1.0,
        -5.960464477539063e-08
      ],
      "type": "VEC3"
    },
    {
      "bufferView": 2,
      "byteOffset": 34176,
      "componentType": 5126,
      "count": 288,
      "max": [
        0.9991652965545654,
        1.0,
        1.0
      ],
      "min": [
        0.0,
        -1.0,
        -0.0873454362154007
      ],
      "type": "VEC3"
    },
    {
      "bufferView": 1,
      "byteOffset": 10240,
      "componentType": 5126,
      "count": 288,
      "max": [
        0.9912152290344238,
        0.989997148513794
      ],
      "min": [
        0.008922964334487915,
        0.005007714498788118
      ],
      "type": "VEC2"
    },
    {
      "bufferView": 0,
      "byteOffset": 13320,
      "componentType": 5125,
      "count": 1005,
      "type": "SCALAR"
    },
    {
      "bufferView": 2,
      "byteOffset": 37632,
      "componentType": 5126,
      "count": 288,
      "max": [
        0.06871234625577927,
        1.0,
        1.9999998807907104
      ],
      "min": [
        -3.003000020980835,
        -1.0,
        -5.960464477539063e-08
      ],
      "type": "VEC3"
    },
    {
      "bufferView": 2,
      "byteOffset": 41088,
      "componentType": 5126,
      "count": 288,
      "max": [
        0.9991652965545654,
        1.0,
        1.0
      ],
      "min": [
        0.0,
        -1.0,
        -0.0873454362154007
      ],
      "type": "VEC3"
    },
    {
      "bufferView": 1,
      "byteOffset": 12544,
      "componentType": 5126,
      "count": 288,
      "max": [
        0.9912152290344238,
        0.989997148513794
      ],
      "min": [
        0.008922964334487915,
        0.005007714498788118
      ],
      "type": "VEC2"
    },
    {
      "bufferView": 0,
      "byteOffset": 17340,
      "componentType": 5125,
      "count": 1005,
      "type": "SCALAR"
    }
  ],
  "asset": {
    "extras": {
      "author": "C. Anastasiadis (https://sketchfab.com/bagatir)",
      "license": "CC-BY-4.0 (http://creativecommons.org/licenses/by/4.0/)",
      "source": "https://sketchfab.com/3d-models/dungeon-stairs-type-3-9233d16c81dc44d4a3ac4143df0d9590",
      "title": "Dungeon Stairs type 3"
    },
    "generator": "Sketchfab-12.68.0",
    "version": "2.0"
  },
  "bufferViews": [
    {
      "buffer": 0,
      "byteLength": 21360,
      "name": "floatBufferViews",
      "target": 34963
    },
    {
      "buffer": 0,
      "byteLength": 14848,
      "byteOffset": 21360,
      "byteStride": 8,
      "name": "floatBufferViews",
      "target": 34962
    },
    {
      "buffer": 0,
      "byteLength": 44544,
      "byteOffset": 36208,
      "byteStride": 12,
      "name": "floatBufferViews",
      "target": 34962
    }
  ],
  "buffers": [
    {
      "byteLength": 80752,
      "uri": "scene.bin"
    }
  ],
  "images": [
    {
      "uri": "textures/Stair_Rail_type_C_baseColor.png"
    },
    {
      "uri": "textures/Staris_Type_B_baseColor.png"
    }
  ],
  "materials": [
    {
      "doubleSided": true,
      "name": "Stair_Rail_type_C",
      "pbrMetallicRoughness": {
        "baseColorTexture": {
          "index": 0
        },
        "metallicFactor": 0.0,
        "roughnessFactor": 0.6
      }
    },
    {
      "doubleSided": true,
      "name": "Staris_Type_B",
      "pbrMetallicRoughness": {
        "baseColorTexture": {
          "index": 1
        },
        "metallicFactor": 0.0,
        "roughnessFactor": 0.6
      }
    }
  ],
  "meshes": [
    {
      "name": "Stair Rail type C_Stair Rail type C_0",
      "primitives": [
        {
          "attributes": {
            "NORMAL": 1,
            "POSITION": 0,
            "TEXCOORD_0": 2
          },
          "indices": 3,
          "material": 0,
          "mode": 4
        }
      ]
    },
    {
      "name": "Stairs.003_Staris Type B_0",
      "primitives": [
        {
          "attributes": {
            "NORMAL": 5,
            "POSITION": 4,
            "TEXCOORD_0": 6
          },
          "indices": 7,
          "material": 1,
          "mode": 4
        }
      ]
    },
    {
      "name": "Stair Rail type C.001_Stair Rail type C_0",
      "primitives": [
        {
          "attributes": {
            "NORMAL": 9,
            "POSITION": 8,
            "TEXCOORD_0": 10
          },
          "indices": 11,
          "material": 0,
          "mode": 4
        }
      ]
    },
    {
      "name": "Stairs.004_Staris Type B_0",
      "primitives": [
        {
          "attributes": {
            "NORMAL": 13,
            "POSITION": 12,
            "TEXCOORD_0": 14
          },
          "indices": 15,
          "material": 1,
          "mode": 4
        }
      ]
    },
    {
      "name": "Stairs.005_Staris Type B_0",
      "primitives": [
        {
          "attributes": {
            "NORMAL": 17,
            "POSITION": 16,
            "TEXCOORD_0": 18
          },
          "indices": 19,
          "material": 1,
          "mode": 4
        }
      ]
    },
    {
      "name": "Stairs.006_Staris Type B_0",
      "primitives": [
        {
          "attributes": {
            "NORMAL": 21,
            "POSITION": 20,
            "TEXCOORD_0": 22
          },
          "indices": 23,
          "material": 1,
          "mode": 4
        }
      ]
    }
  ],
  "nodes": [
    {
      "children": [
        1
      ],
      "matrix": [
        1.0,
        0.0,
        0.0,
        0.0,
        0.0,
        2.220446049250313e-16,
        -1.0,
        0.0,
        0.0,
        1.0,
        2.220446049250313e-16,
        0.0,
        0.0,
        0.0,
        0.0,
        1.0
      ],
      "name": "Sketchfab_model"
    },
    {
      "children": [
        2
      ],
      "matrix": [
        1.0,
        0.0,
        0.0,
        0.0,
        0.0,
        0.0,
        1.0,
        0.0,
        0.0,
        -1.0,
        0.0,
        0.0,
        0.0,
        0.0,
        0.0,
        1.0
      ],
      "name": "e840475d39554b4c89983f641cd95414.fbx"
    },
    {
      "children": [
        3,
        5,
        7,
        9,
        11,
        13
      ],
      "name": "RootNode"
    },
    {
      "children": [
        4
      ],
      "matrix": [
        40.0,
        0.0,
        0.0,
        0.0,
        0.0,
        -8.14603396959157e-06,
        -49.99999999999934,
        0.0,
        0.0,
        99.99999999999868,
        -1.629206793918314e-05,
        0.0,
        4860.7080078125,
        100.50669860839844,
        -742.7484741210938,
        1.0
      ],
      "name": "Stair Rail type C"
    },
    {
      "mesh": 0,
      "name": "Stair Rail type C_Stair Rail type C_0"
    },
    {
      "children": [
        6
      ],
      "matrix": [
        4.331257681400302e-05,
        1.1102230246251565e-14,
        99.99999999999062,
        0.0,
        199.99999999998107,
        -8.742278012618954e-06,
        -8.662515363910828e-05,
        0.0,
        4.371138995207247e-06,
        99.99999999999991,
        -1.9095836023552692e-12,
        0.0,
        5101.509765625,
        -0.003248453140258789,
        -693.6790161132813,
        1.0
      ],
      "name": "Stairs.003"
    },
    {
      "mesh": 1,
      "name": "Stairs.003_Staris Type B_0"
    },
    {
      "children": [
        8
      ],
      "matrix": [
        40.0,
        0.0,
        0.0,
        0.0,
        0.0,
        -8.14603396959157e-06,
        -49.99999999999934,
        0.0,
        0.0,
        99.99999999999868,
        -1.629206793918314e-05,
        0.0,
        5740.7080078125,
        100.50669860839844,
        -742.7484741210938,
        1.0
      ],
      "name": "Stair Rail type C.001"
    },
    {
      "mesh": 2,
      "name": "Stair Rail type C.001_Stair Rail type C_0"
    },
    {
      "children": [
        10
      ],
      "matrix": [
        4.331257681400302e-05,
        1.1102230246251565e-14,
        99.99999999999062,
        0.0,
        199.99999999998107,
        -8.742278012618954e-06,
        -8.662515363910828e-05,
        0.0,
        4.371138995207247e-06,
        99.99999999999991,
        -1.9095836023552692e-12,
        0.0,
        5501.509765625,
        -0.003248453140258789,
        -693.6790161132813,
        1.0
      ],
      "name": "Stairs.004"
    },
    {
      "mesh": 3,
      "name": "Stairs.004_Staris Type B_0"
    },
    {
      "children": [
        12
      ],
      "matrix": [
        4.331257681400302e-05,
        1.1102230246251565e-14,
        99.99999999999062,
        0.0,
        199.99999999998107,
        -8.742278012618954e-06,
        -8.662515363910828e-05,
        0.0,
        4.371138995207247e-06,
        99.99999999999991,
        -1.9095836023552692e-12,
        0.0,
        5101.509765625,
        189.9967498779297,
        -979.6790161132813,
        1.0
      ],
      "name": "Stairs.005"
    },
    {
      "mesh": 4,
      "name": "Stairs.005_Staris Type B_0"
    },
    {
      "children": [
        14
      ],
      "matrix": [
        4.331257681400302e-05,
        1.1102230246251565e-14,
        99.99999999999062,
        0.0,
        199.99999999998107,
        -8.742278012618954e-06,
        -8.662515363910828e-05,
        0.0,
        4.371138995207247e-06,
        99.99999999999991,
        -1.9095836023552692e-12,
        0.0,
        5501.509765625,
        189.9967498779297,
        -979.6790161132813,
        1.0
      ],
      "name": "Stairs.006"
    },
    {
      "mesh": 5,
      "name": "Stairs.006_Staris Type B_0"
    }
  ],
  "samplers": [
    {
      "magFilter": 9729,
      "minFilter": 9987,
      "wrapS": 10497,
      "wrapT": 10497
    }
  ],
  "scene": 0,
  "scenes": [
    {
      "name": "Sketchfab_Scene",
      "nodes": [
        0
      ]
    }
  ],
  "textures": [
    {
      "sampler": 0,
      "source": 0
    },
    {
      "sampler": 0,
      "source": 1
    }
  ]
}
